<svg id="Capa_1" fill="#3d0900" enable-background="new 0 0 512 512" height="512" viewBox="0 0 512 512" width="512" xmlns="http://www.w3.org/2000/svg"><g><g><path d="m436 310c0-16.542-13.458-30-30-30h-37.807c31.864-30.413 50.291-72.684 50.291-117.517 0-2.394-.053-4.819-.158-7.209-.241-5.517-4.903-9.821-10.427-9.554-5.518.241-9.795 4.909-9.554 10.427.092 2.101.138 4.233.138 6.336 0 1.524-.026 3.045-.074 4.562-21.75 8.946-44.135 15.737-67.015 20.344-1.427-8.142-2.159-16.467-2.159-24.906 0-34.552 12.219-67.229 34.61-93.094 2.348 2.713 4.604 5.506 6.739 8.388 3.286 4.439 9.549 5.372 13.987 2.085s5.372-9.549 2.085-13.987c-14.8-19.985-34.281-36.555-56.335-47.917-22.803-11.749-48.502-17.958-74.321-17.958-89.594 0-162.483 72.89-162.483 162.483 0 44.832 18.426 87.104 50.291 117.517h-37.808c-16.542 0-30 13.458-30 30 0 15.614 11.992 28.474 27.248 29.869 21.654 41.905 32.906 88.793 32.576 135.991l-.183 26.07c-.039 5.523 4.407 10.031 9.93 10.07h.072c5.49 0 9.959-4.431 9.998-9.93l.184-26.07c.05-7.123-.156-14.238-.596-21.333h40.57c.081 3.97.137 7.94.137 11.91v35.423c0 5.523 4.477 10 10 10s10-4.477 10-10v-35.424c0-3.97-.054-7.94-.132-11.91h30.196v47.334c0 5.523 4.477 10 10 10s10-4.477 10-10v-47.333h36.89c-.078 3.97-.132 7.94-.132 11.91v35.423c0 5.523 4.477 10 10 10s10-4.477 10-10v-35.424c0-3.97.055-7.94.137-11.91h33.878c-.44 7.095-.646 14.211-.596 21.333l.184 26.07c.039 5.499 4.508 9.93 9.998 9.93h.072c5.522-.039 9.968-4.547 9.93-10.07l-.183-26.07c-.331-47.198 10.922-94.086 32.575-135.991 15.255-1.394 27.247-14.254 27.247-29.868zm-320.202-122.133c19.625 7.712 39.723 13.775 60.213 18.165-5.786 18.102-15.191 34.919-27.861 49.553-16.606-19.228-27.812-42.588-32.352-67.718zm59.632 92.133c-4.609-3.166-9.004-6.567-13.158-10.195 15.527-17.6 26.885-38.025 33.551-60.068 16.511 2.643 33.251 4.22 50.177 4.727v65.536zm70.57-85.546c-15.368-.485-30.574-1.897-45.58-4.238 1.551-9.072 2.346-18.341 2.346-27.733 0-39.898-14.295-77.597-40.444-107.266 22.712-19.86 51.763-32.637 83.678-34.861zm20 20.11c16.979-.338 33.782-1.751 50.362-4.235 6.689 21.816 17.978 42.034 33.366 59.476-4.154 3.628-8.549 7.029-13.158 10.195h-70.57zm129.889-25.022c-4.728 24.493-15.803 47.243-32.039 66.044-12.487-14.422-21.807-30.963-27.612-48.766 20.282-4.135 40.195-9.903 59.651-17.278zm-46.183-134.355c-26.167 29.674-40.471 67.385-40.471 107.296 0 9.593.829 19.058 2.447 28.315-15.048 2.182-30.287 3.44-45.681 3.762v-174.207c19.34 1.319 37.855 6.468 55.16 15.384 10.241 5.276 19.841 11.845 28.545 19.45zm-201.517 14.239c22.37 25.86 34.577 58.522 34.577 93.057 0 8.163-.687 16.22-2.023 24.109-22.955-4.882-45.393-11.976-67.181-21.245-.019-.954-.044-1.906-.044-2.863-.001-35.536 13.077-68.075 34.671-93.058zm-52.189 240.574c0-5.514 4.486-10 10-10h300c5.514 0 10 4.486 10 10s-4.486 10-10 10h-300c-5.514 0-10-4.486-10-10zm275.512 67.333h-41.888c1.931-12.517 4.256-24.971 6.995-37.333h49.753c-5.758 12.122-10.719 24.598-14.86 37.333zm-245.883-37.333h56.445c2.739 12.362 5.064 24.817 6.995 37.333h-48.58c-4.142-12.735-9.103-25.211-14.86-37.333zm76.901 0h43.47v37.333h-36.699c-1.865-12.512-4.126-24.964-6.771-37.333zm63.47 0h50.162c-2.645 12.369-4.906 24.821-6.771 37.333h-43.391zm-112.663 94.667c-1.599-12.579-3.96-25.05-7.069-37.333h45.539c1.479 12.406 2.56 24.859 3.242 37.333zm61.738 0c-.66-12.472-1.696-24.925-3.126-37.333h34.051v37.333zm50.925 0v-37.333h40.742c-1.429 12.408-2.466 24.861-3.126 37.333zm57.642 0c.683-12.474 1.764-24.927 3.242-37.333h38.848c-3.109 12.283-5.47 24.754-7.069 37.333z"/><circle cx="399.84" cy="111.517" r="10"/></g></g></svg>