<svg id="Capa_1" fill="#3d0900" enable-background="new 0 0 607.925 607.925" height="512" viewBox="0 0 607.925 607.925" width="512" xmlns="http://www.w3.org/2000/svg"><g><g id="Page-1_2_"><g id="_x30_03---Frisbee" transform="translate(-1 -1)"><path id="Shape_15_" d="m467.265 111.069c-11.231-10.248-26.119-15.537-41.298-14.671-12.879.237-25.652 2.381-37.903 6.361-42.34 14.694-80.584 39.236-111.582 71.604-68.848 68.859-97.823 156.224-63.263 190.784s121.925 5.596 190.794-63.263 97.823-156.244 63.252-190.815zm-159.179 94.889c-18.115 17.901-33.619 38.262-46.056 60.486-1.793 3.287-5.204 5.368-8.947 5.458-3.743.091-7.251-1.823-9.201-5.02s-2.047-7.191-.253-10.478c13.403-23.975 30.114-45.946 49.64-65.264 2.631-2.724 6.527-3.817 10.191-2.858s6.525 3.82 7.484 7.484c.959 3.665-.133 7.561-2.858 10.192z"/><path id="Shape_14_" d="m570.066 39.905c-28.106-26.448-65.7-40.429-104.258-38.773-17.36.106-34.658 2.07-51.599 5.858-66.773 14.451-135.339 54.251-193.1 111.991-118.006 118.006-153.488 274.554-79.076 348.956s230.95 38.899 348.956-79.076c57.74-57.74 97.54-126.305 112.043-193.079 14.19-65.117 2.453-120.468-32.966-155.877zm-371.665 340.028c-44.013-44.065-16.274-140.882 63.263-220.419 33.414-34.783 74.625-61.115 120.228-76.823 42.724-13.141 78.3-8.32 100.191 13.56 44.013 44.065 16.285 140.882-63.252 220.419-54.01 54.01-115.983 84.158-163.999 84.158-20.862.95-41.219-6.588-56.431-20.895zm371.843-155.448c-20.945 55.565-53.724 105.911-96.063 147.547-41.638 42.337-91.983 75.115-147.547 96.063-5.455 1.939-11.448-.911-13.387-6.366s.911-11.448 6.366-13.387c52.644-19.894 100.331-51.003 139.75-91.169 40.161-39.415 71.27-87.094 91.169-139.729 1.936-5.455 7.927-8.307 13.382-6.371s8.307 7.927 6.371 13.382z"/><path id="Shape_13_" d="m11.526 608.924c-4.238-.001-8.058-2.554-9.679-6.469-1.622-3.915-.725-8.422 2.271-11.419l20.958-20.958c4.112-3.971 10.648-3.914 14.69.128s4.099 10.578.128 14.69l-20.958 20.958c-1.966 1.965-4.631 3.069-7.41 3.07z"/><path id="Shape_12_" d="m134.97 489.881-63.609 63.609c-4.132 4.053-10.748 4.053-14.88 0-4.087-4.118-4.087-10.762 0-14.88l63.609-63.61c2.201 2.62 4.611 5.24 7.126 7.755 2.457 2.511 5.045 4.89 7.754 7.126z"/><path id="Shape_11_" d="m90.329 419.251-71.363 71.363c-4.132 4.053-10.748 4.053-14.88 0-4.087-4.118-4.087-10.762 0-14.88l80.899-80.899c1.124 8.269 2.911 16.434 5.344 24.416z"/><path id="Shape_10_" d="m214.822 525.3-80.585 80.585c-4.132 4.053-10.748 4.053-14.88 0-4.087-4.118-4.087-10.762 0-14.88l71.049-71.049c7.989 2.405 16.152 4.192 24.416 5.344z"/></g></g></g></svg>